<svg xmlns="http://www.w3.org/2000/svg" style="position:absolute;width:0;height:0;overflow:hidden" aria-hidden="true">
  <defs>
    <!-- Skill360 — jeu d'icônes : grille 24 px, zone utile 20 px, trait 1,75 px, terminaisons arrondies -->
    <symbol id="i-management" viewBox="0 0 24 24"><g fill="none" stroke="currentColor" stroke-width="1.75" stroke-linecap="round" stroke-linejoin="round"><circle cx="9" cy="8" r="3.25"/><path d="M3.5 19.5c.6-3.2 2.9-5 5.5-5s4.9 1.8 5.5 5"/><circle cx="17" cy="9.5" r="2.5"/><path d="M16 14.6c2.4.2 4 1.8 4.6 4.4"/></g></symbol>
    <symbol id="i-digital" viewBox="0 0 24 24"><g fill="none" stroke="currentColor" stroke-width="1.75" stroke-linecap="round" stroke-linejoin="round"><rect x="4" y="5" width="16" height="11" rx="1.5"/><path d="M2.5 19.5h19M10 12.5l-2-2 2-2M14 8.5l2 2-2 2"/></g></symbol>
    <symbol id="i-ia" viewBox="0 0 24 24"><g fill="none" stroke="currentColor" stroke-width="1.75" stroke-linecap="round" stroke-linejoin="round"><path d="M10 3.5l1.6 4.4 4.4 1.6-4.4 1.6L10 15.5l-1.6-4.4L4 9.5l4.4-1.6z"/><path d="M17.5 14l.8 2.2 2.2.8-2.2.8-.8 2.2-.8-2.2-2.2-.8 2.2-.8z"/></g></symbol>
    <symbol id="i-langues" viewBox="0 0 24 24"><g fill="none" stroke="currentColor" stroke-width="1.75" stroke-linecap="round" stroke-linejoin="round"><path d="M4 4.5h10A1.5 1.5 0 0 1 15.5 6v6a1.5 1.5 0 0 1-1.5 1.5H9l-3.5 3v-3H4A1.5 1.5 0 0 1 2.5 12V6A1.5 1.5 0 0 1 4 4.5z"/><path d="M18.5 9h1.5a1.5 1.5 0 0 1 1.5 1.5v6A1.5 1.5 0 0 1 20 18h-1v2.5L16 18h-3.5"/></g></symbol>
    <symbol id="i-commercial" viewBox="0 0 24 24"><g fill="none" stroke="currentColor" stroke-width="1.75" stroke-linecap="round" stroke-linejoin="round"><path d="M3 17l6-6 4 4 8-8"/><path d="M15 7h6v6"/></g></symbol>
    <symbol id="i-communication" viewBox="0 0 24 24"><g fill="none" stroke="currentColor" stroke-width="1.75" stroke-linecap="round" stroke-linejoin="round"><rect x="9" y="3" width="6" height="11" rx="3"/><path d="M5.5 11a6.5 6.5 0 0 0 13 0M12 17.5V21M8.5 21h7"/></g></symbol>
    <symbol id="i-rh" viewBox="0 0 24 24"><g fill="none" stroke="currentColor" stroke-width="1.75" stroke-linecap="round" stroke-linejoin="round"><path d="M12 4v16M8 20h8M5 7.5h14M12 4.5l-7 3M12 4.5l7 3"/><path d="M5 7.5L2.5 13a2.5 2.5 0 0 0 5 0zM19 7.5L16.5 13a2.5 2.5 0 0 0 5 0z"/></g></symbol>
    <symbol id="i-securite" viewBox="0 0 24 24"><g fill="none" stroke="currentColor" stroke-width="1.75" stroke-linecap="round" stroke-linejoin="round"><path d="M12 3l7.5 3v5.5c0 4.5-3.2 8.2-7.5 9.5-4.3-1.3-7.5-5-7.5-9.5V6z"/><path d="M8.8 12.2l2.2 2.2 4.4-4.6"/></g></symbol>
    <symbol id="i-presentiel" viewBox="0 0 24 24"><g fill="none" stroke="currentColor" stroke-width="1.75" stroke-linecap="round" stroke-linejoin="round"><path d="M12 21s-6.5-5.6-6.5-11a6.5 6.5 0 0 1 13 0c0 5.4-6.5 11-6.5 11z"/><circle cx="12" cy="10" r="2.5"/></g></symbol>
    <symbol id="i-visio" viewBox="0 0 24 24"><g fill="none" stroke="currentColor" stroke-width="1.75" stroke-linecap="round" stroke-linejoin="round"><rect x="2.5" y="6" width="13.5" height="12" rx="2"/><path d="M16 10.5l5.5-3v9L16 13.5"/></g></symbol>
    <symbol id="i-mixte" viewBox="0 0 24 24"><g fill="none" stroke="currentColor" stroke-width="1.75" stroke-linecap="round" stroke-linejoin="round"><circle cx="9" cy="12" r="5.75"/><circle cx="15" cy="12" r="5.75"/></g></symbol>
    <symbol id="i-elearning" viewBox="0 0 24 24"><g fill="none" stroke="currentColor" stroke-width="1.75" stroke-linecap="round" stroke-linejoin="round"><rect x="6.5" y="2.5" width="11" height="19" rx="2.5"/><path d="M10.5 9.25v5.5l4.25-2.75z"/></g></symbol>
    <symbol id="i-cpf" viewBox="0 0 24 24"><g fill="none" stroke="currentColor" stroke-width="1.75" stroke-linecap="round" stroke-linejoin="round"><path d="M4 7.5h14.5A1.5 1.5 0 0 1 20 9v10a1.5 1.5 0 0 1-1.5 1.5h-13A1.5 1.5 0 0 1 4 19z"/><path d="M4 7.5V6a1.5 1.5 0 0 1 1.5-1.5H16"/><path d="M15.5 14h1.5"/></g></symbol>
    <symbol id="i-entreprise" viewBox="0 0 24 24"><g fill="none" stroke="currentColor" stroke-width="1.75" stroke-linecap="round" stroke-linejoin="round"><path d="M4.5 21V5.5A1.5 1.5 0 0 1 6 4h7a1.5 1.5 0 0 1 1.5 1.5V21M14.5 10H18a1.5 1.5 0 0 1 1.5 1.5V21M2.5 21h19M8 8h3M8 12h3M8 16h3"/></g></symbol>
    <symbol id="i-calendrier" viewBox="0 0 24 24"><g fill="none" stroke="currentColor" stroke-width="1.75" stroke-linecap="round" stroke-linejoin="round"><rect x="3.5" y="5" width="17" height="15.5" rx="2"/><path d="M3.5 10h17M8 3v4M16 3v4"/></g></symbol>
    <symbol id="i-recherche" viewBox="0 0 24 24"><g fill="none" stroke="currentColor" stroke-width="1.75" stroke-linecap="round" stroke-linejoin="round"><circle cx="10.5" cy="10.5" r="6"/><path d="M15 15l5.5 5.5"/></g></symbol>
    <symbol id="i-cible" viewBox="0 0 24 24"><g fill="none" stroke="currentColor" stroke-width="1.75" stroke-linecap="round" stroke-linejoin="round"><circle cx="12" cy="12" r="8.5"/><circle cx="12" cy="12" r="4.5"/><circle cx="12" cy="12" r=".6" fill="currentColor"/></g></symbol>
    <symbol id="i-parcours" viewBox="0 0 24 24"><g fill="none" stroke="currentColor" stroke-width="1.75" stroke-linecap="round" stroke-linejoin="round"><circle cx="6" cy="18.5" r="2"/><circle cx="18" cy="5.5" r="2"/><path d="M8 18.5h7a3.5 3.5 0 0 0 0-7H9a3.5 3.5 0 0 1 0-7h7"/></g></symbol>
    <symbol id="i-livre" viewBox="0 0 24 24"><g fill="none" stroke="currentColor" stroke-width="1.75" stroke-linecap="round" stroke-linejoin="round"><path d="M12 6.5C10.5 5 8 4.5 3.5 4.5v14c4.5 0 7 .5 8.5 2 1.5-1.5 4-2 8.5-2v-14c-4.5 0-7 .5-8.5 2z"/><path d="M12 6.5v14"/></g></symbol>
    <symbol id="i-certif" viewBox="0 0 24 24"><g fill="none" stroke="currentColor" stroke-width="1.75" stroke-linecap="round" stroke-linejoin="round"><circle cx="12" cy="9" r="5.5"/><path d="M8.6 13.4L7 21l5-2.5 5 2.5-1.6-7.6"/></g></symbol>
    <symbol id="i-personne" viewBox="0 0 24 24"><g fill="none" stroke="currentColor" stroke-width="1.75" stroke-linecap="round" stroke-linejoin="round"><circle cx="12" cy="8" r="3.75"/><path d="M4.5 20.5c.8-4 3.8-6.2 7.5-6.2s6.7 2.2 7.5 6.2"/></g></symbol>
    <symbol id="i-mallette" viewBox="0 0 24 24"><g fill="none" stroke="currentColor" stroke-width="1.75" stroke-linecap="round" stroke-linejoin="round"><rect x="3" y="7" width="18" height="13" rx="2"/><path d="M8.5 7V5.5A1.5 1.5 0 0 1 10 4h4a1.5 1.5 0 0 1 1.5 1.5V7M3 12.5h18"/></g></symbol>
    <symbol id="i-horloge" viewBox="0 0 24 24"><g fill="none" stroke="currentColor" stroke-width="1.75" stroke-linecap="round" stroke-linejoin="round"><circle cx="12" cy="12" r="8.5"/><path d="M12 7.5V12l3 2"/></g></symbol>
    <symbol id="i-fleche" viewBox="0 0 24 24"><g fill="none" stroke="currentColor" stroke-width="1.75" stroke-linecap="round" stroke-linejoin="round"><path d="M5 12h14M13 6l6 6-6 6"/></g></symbol>
    <symbol id="i-rejouer" viewBox="0 0 24 24"><g fill="none" stroke="currentColor" stroke-width="1.75" stroke-linecap="round" stroke-linejoin="round"><path d="M19.5 12a7.5 7.5 0 1 1-2.2-5.3"/><path d="M19.5 4.5v4h-4"/></g></symbol>
    <symbol id="i-check" viewBox="0 0 24 24"><g fill="none" stroke="currentColor" stroke-width="1.75" stroke-linecap="round" stroke-linejoin="round"><path d="M5 12.5l4.5 4.5L19 7.5"/></g></symbol>
    <symbol id="i-tel" viewBox="0 0 24 24"><g fill="none" stroke="currentColor" stroke-width="1.75" stroke-linecap="round" stroke-linejoin="round"><path d="M5 3.5h3.5l1.5 4.5-2.2 1.4a11 11 0 0 0 6.8 6.8L16 14l4.5 1.5V19a1.5 1.5 0 0 1-1.5 1.5A15.5 15.5 0 0 1 3.5 5 1.5 1.5 0 0 1 5 3.5z"/></g></symbol>
    <symbol id="i-mail" viewBox="0 0 24 24"><g fill="none" stroke="currentColor" stroke-width="1.75" stroke-linecap="round" stroke-linejoin="round"><rect x="3" y="5" width="18" height="14" rx="2"/><path d="M3.5 6.5l8.5 6.5 8.5-6.5"/></g></symbol>
    <symbol id="i-menu" viewBox="0 0 24 24"><g fill="none" stroke="currentColor" stroke-width="1.75" stroke-linecap="round" stroke-linejoin="round"><path d="M4 8h16M4 16h16"/></g></symbol>
  </defs>
</svg>
